<svg width="85" height="86" viewBox="0 0 85 86" fill="none" xmlns="http://www.w3.org/2000/svg">
<g filter="url(#filter0_d)">
<g filter="url(#filter1_i)">
<ellipse cx="43.3292" cy="39.6886" rx="29.0014" ry="29.0545" fill="url(#paint0_linear)"/>
</g>
<g filter="url(#filter2_iiii)">
<path fill-rule="evenodd" clip-rule="evenodd" d="M11.5052 42.7442C14.5291 73.9977 57.8821 81.2927 71.2867 52.8037C83.9047 25.9866 54.9421 -2.31681 28.7602 11.2451C26.7143 12.3047 26.7374 12.1862 28.221 14.0285C29.6867 15.8486 29.4386 15.7678 31.1315 14.9772C58.6357 2.13548 83.4438 37.6323 61.722 58.7477C39.8477 80.0113 4.46149 53.5553 18.9034 26.735C19.7585 25.147 19.8198 25.3363 18.0062 23.9642C16.1411 22.5531 16.1672 22.5564 15.5453 23.6468C12.27 29.3884 10.8584 36.0607 11.5052 42.7442ZM22.1031 41.4718C24.3095 64.8484 58.4256 66.6763 63.198 43.6736C66.6128 27.2147 48.563 12.7122 34.2425 20.4089C33.6025 20.7529 36.0208 24.2189 36.7838 24.0511C36.9591 24.0126 37.7506 23.7866 38.5428 23.5491C54.3398 18.812 66.1605 39.233 54.4126 50.9651C41.6667 63.6937 20.5882 49.2672 27.7998 32.7508C28.2998 31.6057 28.4056 31.7879 26.3441 30.2445C24.6826 29.0008 24.7001 29.0007 24.1035 30.2339C22.435 33.6827 21.7375 37.6004 22.1031 41.4718ZM32.8647 40.265C33.2777 45.8016 38.582 50.0696 44.0953 49.3014C54.8701 47.8004 55.9005 32.7647 45.4365 29.7313C44.0963 29.3428 41.3603 29.3545 41.3123 29.7489C41.2523 30.241 44.45 33.9791 45.2607 34.3646C48.6235 35.9638 49.4473 40.5616 46.8513 43.2415C43.3717 46.8336 37.4044 44.4981 37.2406 39.4801C37.2193 38.8292 36.9047 38.2228 36.3847 37.8307L35.5619 37.2102C34.6572 36.528 33.8101 35.9714 33.6797 35.9735C33.1558 35.9818 32.7174 38.2902 32.8647 40.265Z" fill="url(#paint1_linear)"/>
</g>
<path fill-rule="evenodd" clip-rule="evenodd" d="M15.952 18.2761L20.1596 22.5358L22.6858 23.0072L25.2118 23.4784L34.3581 31.9681C39.3884 36.6375 43.5531 40.4571 43.6126 40.4561C43.9174 40.4513 45.1128 38.7652 44.9509 38.5684C44.8607 38.4586 40.9679 34.3906 36.3002 29.5284L27.8135 20.688L27.5783 18.4009L27.3432 16.1136L24.1979 12.9701C22.4679 11.2413 20.3828 9.15097 19.5641 8.3249C18.7455 7.49896 18.0441 6.85413 18.0054 6.89212C17.9668 6.92998 17.7857 8.31394 17.6033 9.9676C17.2074 13.5534 17.6716 13.039 14.4743 13.4349C13.0052 13.6168 11.7891 13.7695 11.7718 13.774C11.5966 13.82 12.3207 14.5998 15.952 18.2761Z" fill="url(#paint2_linear)"/>
<g filter="url(#filter3_ii)">
<path fill-rule="evenodd" clip-rule="evenodd" d="M15.952 18.2761L20.1596 22.5358L22.6858 23.0072L25.2118 23.4784L34.3581 31.9681C39.3884 36.6375 43.5531 40.4571 43.6126 40.4561C43.9174 40.4513 45.1128 38.7652 44.9509 38.5684C44.8607 38.4586 40.9679 34.3906 36.3002 29.5284L27.8135 20.688L27.5783 18.4009L27.3432 16.1136L24.1979 12.9701C22.4679 11.2413 20.3828 9.15097 19.5641 8.3249C18.7455 7.49896 18.0441 6.85413 18.0054 6.89212C17.9668 6.92998 17.7857 8.31394 17.6033 9.9676C17.2074 13.5534 17.6716 13.039 14.4743 13.4349C13.0052 13.6168 11.7891 13.7695 11.7718 13.774C11.5966 13.82 12.3207 14.5998 15.952 18.2761Z" fill="url(#paint3_radial)" fill-opacity="0.1"/>
</g>
<g filter="url(#filter4_ii)">
<path fill-rule="evenodd" clip-rule="evenodd" d="M11.5431 42.6307C14.569 73.9961 57.9256 81.3197 71.3296 52.7295C83.9469 25.8173 54.9807 -2.5889 28.7977 11.02C26.7517 12.0833 26.7747 11.9644 28.2586 13.8134C29.7244 15.6401 29.4764 15.5589 31.1694 14.7656C58.6748 1.87951 83.4867 37.5046 61.7645 58.6943C39.8898 80.0326 4.49952 53.4801 18.941 26.5648C19.7961 24.9712 19.8573 25.1611 18.0436 23.784C16.1783 22.3677 16.2044 22.3711 15.5825 23.4653C12.3073 29.2273 10.896 35.9234 11.5431 42.6307ZM22.1417 41.3544C24.3497 64.8147 58.4683 66.6511 63.2398 43.5663C66.6539 27.0488 48.602 12.4935 34.2809 20.2169C33.6409 20.5621 36.0595 24.0406 36.8225 23.8723C36.9978 23.8336 37.7894 23.6068 38.5816 23.3685C54.3796 18.6154 66.2023 39.1101 54.4541 50.8834C41.708 63.6569 20.6272 49.1776 27.8384 32.6026C28.3383 31.4534 28.4442 31.6362 26.3824 30.0872C24.7207 28.8389 24.7382 28.8389 24.1417 30.0764C22.4732 33.5375 21.7759 37.4691 22.1417 41.3544ZM32.9041 40.1439C33.3174 45.7003 38.6224 49.9838 44.136 49.2133C54.9115 47.7074 55.9412 32.6181 45.4762 29.5732C44.1358 29.1832 41.3997 29.1948 41.3517 29.5906C41.2917 30.0845 44.4899 33.8361 45.3006 34.2231C48.6638 35.8282 49.4879 40.4425 46.8919 43.1318C43.4122 46.7365 37.4443 44.3923 37.2802 39.3564C37.2589 38.703 36.9437 38.0942 36.4224 37.6997L35.6013 37.0784C34.6965 36.3936 33.8493 35.835 33.7188 35.8371C33.195 35.8454 32.7566 38.162 32.9041 40.1439Z" fill="url(#paint4_radial)" fill-opacity="0.1"/>
</g>
</g>
<defs>
<filter id="filter0_d" x="0.885193" y="0.469696" width="83.9867" height="84.6655" filterUnits="userSpaceOnUse" color-interpolation-filters="sRGB">
<feFlood flood-opacity="0" result="BackgroundImageFix"/>
<feColorMatrix in="SourceAlpha" type="matrix" values="0 0 0 0 0 0 0 0 0 0 0 0 0 0 0 0 0 0 127 0"/>
<feOffset dy="4"/>
<feGaussianBlur stdDeviation="5"/>
<feColorMatrix type="matrix" values="0 0 0 0 0 0 0 0 0 0.0458333 0 0 0 0 0.458333 0 0 0 0.16 0"/>
<feBlend mode="normal" in2="BackgroundImageFix" result="effect1_dropShadow"/>
<feBlend mode="normal" in="SourceGraphic" in2="effect1_dropShadow" result="shape"/>
</filter>
<filter id="filter1_i" x="14.3278" y="6.63412" width="58.0028" height="62.109" filterUnits="userSpaceOnUse" color-interpolation-filters="sRGB">
<feFlood flood-opacity="0" result="BackgroundImageFix"/>
<feBlend mode="normal" in="SourceGraphic" in2="BackgroundImageFix" result="shape"/>
<feColorMatrix in="SourceAlpha" type="matrix" values="0 0 0 0 0 0 0 0 0 0 0 0 0 0 0 0 0 0 127 0" result="hardAlpha"/>
<feOffset dy="-4"/>
<feGaussianBlur stdDeviation="2"/>
<feComposite in2="hardAlpha" operator="arithmetic" k2="-1" k3="1"/>
<feColorMatrix type="matrix" values="0 0 0 0 0.302083 0 0 0 0 0.381523 0 0 0 0 0.833333 0 0 0 0.4 0"/>
<feBlend mode="normal" in2="shape" result="effect1_innerShadow"/>
</filter>
<filter id="filter2_iiii" x="8.66467" y="5.0506" width="66.0565" height="68.2823" filterUnits="userSpaceOnUse" color-interpolation-filters="sRGB">
<feFlood flood-opacity="0" result="BackgroundImageFix"/>
<feBlend mode="normal" in="SourceGraphic" in2="BackgroundImageFix" result="shape"/>
<feColorMatrix in="SourceAlpha" type="matrix" values="0 0 0 0 0 0 0 0 0 0 0 0 0 0 0 0 0 0 127 0" result="hardAlpha"/>
<feOffset dx="-0.385199" dy="-0.385199"/>
<feGaussianBlur stdDeviation="0.385199"/>
<feComposite in2="hardAlpha" operator="arithmetic" k2="-1" k3="1"/>
<feColorMatrix type="matrix" values="0 0 0 0 0.866667 0 0 0 0 0.603922 0 0 0 0 0.380392 0 0 0 0.5 0"/>
<feBlend mode="normal" in2="shape" result="effect1_innerShadow"/>
<feColorMatrix in="SourceAlpha" type="matrix" values="0 0 0 0 0 0 0 0 0 0 0 0 0 0 0 0 0 0 127 0" result="hardAlpha"/>
<feOffset dx="0.385199" dy="0.385199"/>
<feGaussianBlur stdDeviation="0.385199"/>
<feComposite in2="hardAlpha" operator="arithmetic" k2="-1" k3="1"/>
<feColorMatrix type="matrix" values="0 0 0 0 1 0 0 0 0 0.737255 0 0 0 0 0.466667 0 0 0 0.3 0"/>
<feBlend mode="normal" in2="effect1_innerShadow" result="effect2_innerShadow"/>
<feColorMatrix in="SourceAlpha" type="matrix" values="0 0 0 0 0 0 0 0 0 0 0 0 0 0 0 0 0 0 127 0" result="hardAlpha"/>
<feOffset dx="-2.68732" dy="2.68732"/>
<feGaussianBlur stdDeviation="1.34366"/>
<feComposite in2="hardAlpha" operator="arithmetic" k2="-1" k3="1"/>
<feColorMatrix type="matrix" values="0 0 0 0 1 0 0 0 0 1 0 0 0 0 1 0 0 0 0.15 0"/>
<feBlend mode="normal" in2="effect2_innerShadow" result="effect3_innerShadow"/>
<feColorMatrix in="SourceAlpha" type="matrix" values="0 0 0 0 0 0 0 0 0 0 0 0 0 0 0 0 0 0 127 0" result="hardAlpha"/>
<feOffset dy="-2.68732"/>
<feGaussianBlur stdDeviation="1.34366"/>
<feComposite in2="hardAlpha" operator="arithmetic" k2="-1" k3="1"/>
<feColorMatrix type="matrix" values="0 0 0 0 0.101961 0 0 0 0 0.219608 0 0 0 0 0.890196 0 0 0 0.15 0"/>
<feBlend mode="normal" in2="effect3_innerShadow" result="effect4_innerShadow"/>
</filter>
<filter id="filter3_ii" x="6.63343" y="4.70257" width="38.3613" height="41.2598" filterUnits="userSpaceOnUse" color-interpolation-filters="sRGB">
<feFlood flood-opacity="0" result="BackgroundImageFix"/>
<feBlend mode="normal" in="SourceGraphic" in2="BackgroundImageFix" result="shape"/>
<feColorMatrix in="SourceAlpha" type="matrix" values="0 0 0 0 0 0 0 0 0 0 0 0 0 0 0 0 0 0 127 0" result="hardAlpha"/>
<feOffset dx="-5.00598" dy="5.00598"/>
<feGaussianBlur stdDeviation="2.50299"/>
<feComposite in2="hardAlpha" operator="arithmetic" k2="-1" k3="1"/>
<feColorMatrix type="matrix" values="0 0 0 0 1 0 0 0 0 1 0 0 0 0 1 0 0 0 0.15 0"/>
<feBlend mode="normal" in2="shape" result="effect1_innerShadow"/>
<feColorMatrix in="SourceAlpha" type="matrix" values="0 0 0 0 0 0 0 0 0 0 0 0 0 0 0 0 0 0 127 0" result="hardAlpha"/>
<feOffset dy="-1.76712"/>
<feGaussianBlur stdDeviation="1.76712"/>
<feComposite in2="hardAlpha" operator="arithmetic" k2="-1" k3="1"/>
<feColorMatrix type="matrix" values="0 0 0 0 0.101961 0 0 0 0 0.219608 0 0 0 0 0.890196 0 0 0 0.24 0"/>
<feBlend mode="normal" in2="effect1_innerShadow" result="effect2_innerShadow"/>
</filter>
<filter id="filter4_ii" x="8.19788" y="4.31613" width="66.674" height="69.5063" filterUnits="userSpaceOnUse" color-interpolation-filters="sRGB">
<feFlood flood-opacity="0" result="BackgroundImageFix"/>
<feBlend mode="normal" in="SourceGraphic" in2="BackgroundImageFix" result="shape"/>
<feColorMatrix in="SourceAlpha" type="matrix" values="0 0 0 0 0 0 0 0 0 0 0 0 0 0 0 0 0 0 127 0" result="hardAlpha"/>
<feOffset dx="-2.68732" dy="2.68732"/>
<feGaussianBlur stdDeviation="1.34366"/>
<feComposite in2="hardAlpha" operator="arithmetic" k2="-1" k3="1"/>
<feColorMatrix type="matrix" values="0 0 0 0 1 0 0 0 0 1 0 0 0 0 1 0 0 0 0.15 0"/>
<feBlend mode="normal" in2="shape" result="effect1_innerShadow"/>
<feColorMatrix in="SourceAlpha" type="matrix" values="0 0 0 0 0 0 0 0 0 0 0 0 0 0 0 0 0 0 127 0" result="hardAlpha"/>
<feOffset dy="-2.68732"/>
<feGaussianBlur stdDeviation="1.34366"/>
<feComposite in2="hardAlpha" operator="arithmetic" k2="-1" k3="1"/>
<feColorMatrix type="matrix" values="0 0 0 0 0.101961 0 0 0 0 0.219608 0 0 0 0 0.890196 0 0 0 0.15 0"/>
<feBlend mode="normal" in2="effect1_innerShadow" result="effect2_innerShadow"/>
</filter>
<linearGradient id="paint0_linear" x1="43.3292" y1="10.6341" x2="43.3292" y2="68.7431" gradientUnits="userSpaceOnUse">
<stop stop-color="white"/>
<stop offset="1" stop-color="#ECECEC"/>
</linearGradient>
<linearGradient id="paint1_linear" x1="74.8278" y1="70.1448" x2="-4.41558" y2="35.4825" gradientUnits="userSpaceOnUse">
<stop stop-color="#3D4FF0"/>
<stop offset="1" stop-color="#CDD7FA"/>
</linearGradient>
<linearGradient id="paint2_linear" x1="44.9948" y1="40.4341" x2="3.21985" y2="22.8187" gradientUnits="userSpaceOnUse">
<stop stop-color="#3D4FF0"/>
<stop offset="1" stop-color="#CDD7FA"/>
</linearGradient>
<radialGradient id="paint3_radial" cx="0" cy="0" r="1" gradientUnits="userSpaceOnUse" gradientTransform="translate(14.9824 10.8079) rotate(44.8624) scale(35.4205 35.4086)">
<stop stop-color="#47AAFC"/>
<stop offset="1" stop-color="#4561FF"/>
</radialGradient>
<radialGradient id="paint4_radial" cx="0" cy="0" r="1" gradientUnits="userSpaceOnUse" gradientTransform="translate(17.2787 13.8963) rotate(44.5505) scale(67.6061 67.5991)">
<stop stop-color="#47AAFC"/>
<stop offset="1" stop-color="#4561FF"/>
</radialGradient>
</defs>
</svg>
