<svg width="31" height="31" viewBox="0 0 31 31" fill="none" xmlns="http://www.w3.org/2000/svg">
<path d="M10.7365 22.4702C13.2139 24.2857 16.2853 25.0989 19.3364 24.747C22.3875 24.3951 25.1932 22.9041 27.1922 20.5724C29.1913 18.2406 30.2362 15.24 30.1179 12.1709C29.9997 9.10184 28.727 6.19056 26.5544 4.01955C24.3819 1.84854 21.4698 0.577898 18.4007 0.461836C15.3315 0.345775 12.3318 1.39285 10.0015 3.39359C7.67123 5.39432 6.1823 8.20116 5.8326 11.2526C5.48291 14.304 6.29823 17.3749 8.11545 19.851L8.11545 19.8491C8.04045 19.9053 7.9692 19.9653 7.89983 20.0328L0.6815 27.2513C0.329694 27.6029 0.131953 28.0798 0.131777 28.5771C0.131601 29.0745 0.329004 29.5516 0.680561 29.9034C1.03212 30.2552 1.50903 30.4529 2.00638 30.4531C2.50374 30.4533 2.98079 30.2559 3.3326 29.9043L10.5509 22.6858C10.6188 22.6188 10.6815 22.5467 10.7384 22.4702L10.7365 22.4702ZM17.9436 22.954C16.5894 22.954 15.2485 22.6872 13.9974 22.169C12.7463 21.6508 11.6096 20.8912 10.652 19.9336C9.69446 18.976 8.93489 17.8392 8.41667 16.5881C7.89845 15.337 7.63172 13.9961 7.63172 12.6418C7.63172 11.2876 7.89845 9.9467 8.41667 8.69558C8.93489 7.44445 9.69446 6.30765 10.652 5.35008C11.6096 4.39252 12.7463 3.63293 13.9974 3.1147C15.2485 2.59647 16.5895 2.32974 17.9436 2.32974C20.6785 2.32974 23.3014 3.41619 25.2352 5.35009C27.1691 7.28398 28.2555 9.90691 28.2555 12.6419C28.2555 15.3768 27.1691 17.9997 25.2352 19.9336C23.3014 21.8675 20.6785 22.954 17.9436 22.954V22.954Z" fill="#ECBC3E"/>
</svg>
