<svg width="65" height="65" viewBox="0 0 65 65" fill="none" xmlns="http://www.w3.org/2000/svg">
<g filter="url(#filter0_ii)">
<path d="M5.82504 50.1189C-3.88133 35.3522 0.220875 15.5129 14.9876 5.80649C29.7543 -3.89988 49.5936 0.20232 59.3 14.969C69.0063 29.7357 64.9041 49.575 50.1374 59.2814C35.3707 68.9878 15.5314 64.8856 5.82504 50.1189Z" fill="#A8D1FF"/>
</g>
<path d="M36.6923 49.3582H28.4324L24.3024 53.4882H18.1074L22.2374 49.3582C21.1421 49.3582 20.0916 48.9231 19.3171 48.1486C18.5425 47.3741 18.1074 46.3236 18.1074 45.2282V16.3184C18.1074 14.047 19.9659 12.1885 22.2374 12.1885H42.8873C43.9826 12.1885 45.0331 12.6236 45.8076 13.3981C46.5821 14.1726 47.0172 15.2231 47.0172 16.3184V45.2282C47.0172 46.3236 46.5821 47.3741 45.8076 48.1486C45.0331 48.9231 43.9826 49.3582 42.8873 49.3582L47.0172 53.4882H40.8223L36.6923 49.3582ZM22.2374 22.5134V34.9033H42.8873V22.5134H22.2374ZM25.3349 45.2282C26.1564 45.2282 26.9442 44.9019 27.5251 44.321C28.106 43.7401 28.4324 42.9523 28.4324 42.1308C28.4324 41.3093 28.106 40.5214 27.5251 39.9405C26.9442 39.3596 26.1564 39.0333 25.3349 39.0333C24.5134 39.0333 23.7255 39.3596 23.1446 39.9405C22.5637 40.5214 22.2374 41.3093 22.2374 42.1308C22.2374 42.9523 22.5637 43.7401 23.1446 44.321C23.7255 44.9019 24.5134 45.2282 25.3349 45.2282V45.2282ZM39.7898 45.2282C40.6113 45.2282 41.3991 44.9019 41.98 44.321C42.5609 43.7401 42.8873 42.9523 42.8873 42.1308C42.8873 41.3093 42.5609 40.5214 41.98 39.9405C41.3991 39.3596 40.6113 39.0333 39.7898 39.0333C38.9683 39.0333 38.1804 39.3596 37.5995 39.9405C37.0186 40.5214 36.6923 41.3093 36.6923 42.1308C36.6923 42.9523 37.0186 43.7401 37.5995 44.321C38.1804 44.9019 38.9683 45.2282 39.7898 45.2282ZM28.4324 16.3184V18.3834H36.6923V16.3184H28.4324Z" fill="url(#paint0_linear)"/>
<g filter="url(#filter1_d)">
<path d="M19.0171 48.4486C19.6488 49.0804 20.4471 49.5073 21.3088 49.6868L17.8074 53.1882C17.6861 53.3095 17.6498 53.492 17.7155 53.6505C17.7811 53.8091 17.9358 53.9124 18.1074 53.9124H24.3024C24.4149 53.9124 24.5228 53.8678 24.6024 53.7882L28.6081 49.7825H36.5166L40.5223 53.7882C40.6018 53.8678 40.7097 53.9124 40.8223 53.9124H47.0172C47.1888 53.9124 47.3435 53.8091 47.4092 53.6505C47.4749 53.492 47.4386 53.3095 47.3172 53.1882L43.8158 49.6868C44.6775 49.5073 45.4758 49.0804 46.1076 48.4486C46.9617 47.5945 47.4415 46.4361 47.4415 45.2282V16.3184C47.4415 15.1106 46.9617 13.9522 46.1076 13.0981C45.2535 12.244 44.0951 11.7642 42.8873 11.7642H22.2374C19.7316 11.7642 17.6832 13.8127 17.6832 16.3184V45.2282C17.6832 46.4361 18.163 47.5945 19.0171 48.4486ZM42.463 34.4791H22.6617V22.9377H42.463V34.4791ZM27.2251 44.021C26.7238 44.5224 26.0439 44.804 25.3349 44.804C24.6259 44.804 23.9459 44.5224 23.4446 44.021C22.9433 43.5197 22.6617 42.8398 22.6617 42.1308C22.6617 41.4218 22.9433 40.7418 23.4446 40.2405C23.9459 39.7392 24.6259 39.4575 25.3349 39.4575C26.0439 39.4575 26.7238 39.7392 27.2251 40.2405C27.7265 40.7418 28.0081 41.4218 28.0081 42.1308C28.0081 42.8398 27.7265 43.5197 27.2251 44.021ZM41.68 44.021C41.1787 44.5224 40.4988 44.804 39.7898 44.804C39.0808 44.804 38.4008 44.5224 37.8995 44.021C37.3982 43.5197 37.1166 42.8398 37.1166 42.1308C37.1166 41.4218 37.3982 40.7418 37.8995 40.2405C38.4008 39.7392 39.0808 39.4575 39.7898 39.4575C40.4988 39.4575 41.1787 39.7392 41.68 40.2405C42.1814 40.7418 42.463 41.4218 42.463 42.1308C42.463 42.8398 42.1814 43.5197 41.68 44.021ZM36.268 17.9592H28.8566V16.7427H36.268V17.9592Z" stroke="url(#paint1_linear)" stroke-width="0.848515" stroke-miterlimit="10" stroke-linecap="round" stroke-linejoin="round"/>
</g>
<g filter="url(#filter2_di)">
<rect x="24.7549" y="27.7246" width="15.0553" height="5.28457" rx="2.64228" fill="white"/>
</g>
<g filter="url(#filter3_di)">
<circle cx="25.4899" cy="41.8591" r="1.19989" fill="white"/>
</g>
<g filter="url(#filter4_di)">
<circle cx="39.4626" cy="42.2048" r="1.19989" fill="white"/>
</g>
<defs>
<filter id="filter0_ii" x="-1.78832" y="-1.80688" width="68.7017" height="68.7017" filterUnits="userSpaceOnUse" color-interpolation-filters="sRGB">
<feFlood flood-opacity="0" result="BackgroundImageFix"/>
<feBlend mode="normal" in="SourceGraphic" in2="BackgroundImageFix" result="shape"/>
<feColorMatrix in="SourceAlpha" type="matrix" values="0 0 0 0 0 0 0 0 0 0 0 0 0 0 0 0 0 0 127 0" result="hardAlpha"/>
<feOffset dx="2.35082" dy="2.35082"/>
<feGaussianBlur stdDeviation="3.05607"/>
<feComposite in2="hardAlpha" operator="arithmetic" k2="-1" k3="1"/>
<feColorMatrix type="matrix" values="0 0 0 0 0.125278 0 0 0 0 0.504495 0 0 0 0 0.733333 0 0 0 0.2 0"/>
<feBlend mode="normal" in2="shape" result="effect1_innerShadow"/>
<feColorMatrix in="SourceAlpha" type="matrix" values="0 0 0 0 0 0 0 0 0 0 0 0 0 0 0 0 0 0 127 0" result="hardAlpha"/>
<feOffset dx="-2.35082" dy="-2.35082"/>
<feGaussianBlur stdDeviation="2.35082"/>
<feComposite in2="hardAlpha" operator="arithmetic" k2="-1" k3="1"/>
<feColorMatrix type="matrix" values="0 0 0 0 1 0 0 0 0 1 0 0 0 0 1 0 0 0 0.9 0"/>
<feBlend mode="normal" in2="effect1_innerShadow" result="effect2_innerShadow"/>
</filter>
<filter id="filter1_d" x="16.3615" y="10.4425" width="33.2989" height="45.6887" filterUnits="userSpaceOnUse" color-interpolation-filters="sRGB">
<feFlood flood-opacity="0" result="BackgroundImageFix"/>
<feColorMatrix in="SourceAlpha" type="matrix" values="0 0 0 0 0 0 0 0 0 0 0 0 0 0 0 0 0 0 127 0"/>
<feOffset dx="0.448666" dy="0.448666"/>
<feGaussianBlur stdDeviation="0.672999"/>
<feColorMatrix type="matrix" values="0 0 0 0 0.808333 0 0 0 0 0.222292 0 0 0 0 0.222292 0 0 0 0.9 0"/>
<feBlend mode="normal" in2="BackgroundImageFix" result="effect1_dropShadow"/>
<feBlend mode="normal" in="SourceGraphic" in2="effect1_dropShadow" result="shape"/>
</filter>
<filter id="filter2_di" x="23.8576" y="26.8273" width="17.7473" height="7.97656" filterUnits="userSpaceOnUse" color-interpolation-filters="sRGB">
<feFlood flood-opacity="0" result="BackgroundImageFix"/>
<feColorMatrix in="SourceAlpha" type="matrix" values="0 0 0 0 0 0 0 0 0 0 0 0 0 0 0 0 0 0 127 0"/>
<feOffset dx="0.448666" dy="0.448666"/>
<feGaussianBlur stdDeviation="0.672999"/>
<feColorMatrix type="matrix" values="0 0 0 0 0.808333 0 0 0 0 0.222292 0 0 0 0 0.222292 0 0 0 0.9 0"/>
<feBlend mode="normal" in2="BackgroundImageFix" result="effect1_dropShadow"/>
<feBlend mode="normal" in="SourceGraphic" in2="effect1_dropShadow" result="shape"/>
<feColorMatrix in="SourceAlpha" type="matrix" values="0 0 0 0 0 0 0 0 0 0 0 0 0 0 0 0 0 0 127 0" result="hardAlpha"/>
<feOffset dx="0.448666" dy="0.448666"/>
<feGaussianBlur stdDeviation="0.448666"/>
<feComposite in2="hardAlpha" operator="arithmetic" k2="-1" k3="1"/>
<feColorMatrix type="matrix" values="0 0 0 0 1 0 0 0 0 1 0 0 0 0 0.988235 0 0 0 0.3 0"/>
<feBlend mode="normal" in2="shape" result="effect2_innerShadow"/>
</filter>
<filter id="filter3_di" x="23.3927" y="39.7618" width="5.09178" height="5.09178" filterUnits="userSpaceOnUse" color-interpolation-filters="sRGB">
<feFlood flood-opacity="0" result="BackgroundImageFix"/>
<feColorMatrix in="SourceAlpha" type="matrix" values="0 0 0 0 0 0 0 0 0 0 0 0 0 0 0 0 0 0 127 0"/>
<feOffset dx="0.448666" dy="0.448666"/>
<feGaussianBlur stdDeviation="0.672999"/>
<feColorMatrix type="matrix" values="0 0 0 0 0.808333 0 0 0 0 0.222292 0 0 0 0 0.222292 0 0 0 0.9 0"/>
<feBlend mode="normal" in2="BackgroundImageFix" result="effect1_dropShadow"/>
<feBlend mode="normal" in="SourceGraphic" in2="effect1_dropShadow" result="shape"/>
<feColorMatrix in="SourceAlpha" type="matrix" values="0 0 0 0 0 0 0 0 0 0 0 0 0 0 0 0 0 0 127 0" result="hardAlpha"/>
<feOffset dx="0.448666" dy="0.448666"/>
<feGaussianBlur stdDeviation="0.448666"/>
<feComposite in2="hardAlpha" operator="arithmetic" k2="-1" k3="1"/>
<feColorMatrix type="matrix" values="0 0 0 0 1 0 0 0 0 1 0 0 0 0 0.988235 0 0 0 0.3 0"/>
<feBlend mode="normal" in2="shape" result="effect2_innerShadow"/>
</filter>
<filter id="filter4_di" x="37.3654" y="40.1076" width="5.09178" height="5.09178" filterUnits="userSpaceOnUse" color-interpolation-filters="sRGB">
<feFlood flood-opacity="0" result="BackgroundImageFix"/>
<feColorMatrix in="SourceAlpha" type="matrix" values="0 0 0 0 0 0 0 0 0 0 0 0 0 0 0 0 0 0 127 0"/>
<feOffset dx="0.448666" dy="0.448666"/>
<feGaussianBlur stdDeviation="0.672999"/>
<feColorMatrix type="matrix" values="0 0 0 0 0.808333 0 0 0 0 0.222292 0 0 0 0 0.222292 0 0 0 0.9 0"/>
<feBlend mode="normal" in2="BackgroundImageFix" result="effect1_dropShadow"/>
<feBlend mode="normal" in="SourceGraphic" in2="effect1_dropShadow" result="shape"/>
<feColorMatrix in="SourceAlpha" type="matrix" values="0 0 0 0 0 0 0 0 0 0 0 0 0 0 0 0 0 0 127 0" result="hardAlpha"/>
<feOffset dx="0.448666" dy="0.448666"/>
<feGaussianBlur stdDeviation="0.448666"/>
<feComposite in2="hardAlpha" operator="arithmetic" k2="-1" k3="1"/>
<feColorMatrix type="matrix" values="0 0 0 0 1 0 0 0 0 1 0 0 0 0 0.988235 0 0 0 0.3 0"/>
<feBlend mode="normal" in2="shape" result="effect2_innerShadow"/>
</filter>
<linearGradient id="paint0_linear" x1="32.5623" y1="12.1885" x2="32.5623" y2="53.4882" gradientUnits="userSpaceOnUse">
<stop stop-color="#FFC592"/>
<stop offset="1" stop-color="#F6822B"/>
</linearGradient>
<linearGradient id="paint1_linear" x1="9.32818" y1="37.1249" x2="27.6434" y2="56.0868" gradientUnits="userSpaceOnUse">
<stop stop-color="#FFB763"/>
<stop offset="1" stop-color="#FFA73F"/>
</linearGradient>
</defs>
</svg>
