<svg viewBox="0 0 140 46" fill="none" xmlns="http://www.w3.org/2000/svg"><g clip-path="url(#clip0)"><path d="M50.9 34.47L44.38 18.4a4.05 4.05 0 01-.34-1.48c0-.69.34-1.26.89-1.83a2.93 2.93 0 013.64-.11c.55.34.88.9 1.1 1.48l3.97 10.95 4.3-10.95c.22-.69.66-1.14 1.1-1.48.55-.35 1.1-.57 1.77-.57.66 0 1.32.22 1.87.68.55.46.88 1.03.88 1.83 0 .57-.1 1.02-.33 1.48l-9.48 24.3c-.66 1.48-1.54 2.27-2.76 2.27-.88 0-1.65-.22-2.2-.8a2.37 2.37 0 01-.89-1.7c0-.46.11-1.03.34-1.72l2.64-6.27zM85.08 18.27v14.37c0 1.14-.11 2.06-.44 2.74-.33.69-1.1 1.03-2.32 1.03-.77 0-1.43-.23-1.87-.57a4.07 4.07 0 01-1-1.83 7.11 7.11 0 01-5.62 2.74 8.74 8.74 0 01-4.96-1.48 10.21 10.21 0 01-3.53-4 12.47 12.47 0 01-1.22-5.81c0-2.06.45-4 1.33-5.7a10.49 10.49 0 013.53-4.11 8.16 8.16 0 014.85-1.49 6.87 6.87 0 015.62 2.62c.11-.68.44-1.25.89-1.7a2.93 2.93 0 011.87-.69c1.21 0 1.99.35 2.32 1.03.44.8.55 1.71.55 2.85zm-15 7.19c0 1.02.22 1.94.55 2.85.33.91.88 1.6 1.55 2.17.66.57 1.54.8 2.53.8 1.44 0 2.54-.58 3.31-1.83a7.18 7.18 0 001.21-4.1c0-1.03-.22-1.95-.55-2.86a5.51 5.51 0 00-1.54-2.28 3.85 3.85 0 00-4.96 0 5.52 5.52 0 00-1.55 2.28 10.01 10.01 0 00-.55 2.97zM88.05 33.22V8.35c0-.91.23-1.71.78-2.28a2.74 2.74 0 012.2-1.03c.55 0 1.1.12 1.55.46.44.23.77.68.99 1.14.22.46.33 1.03.33 1.71v7.87a8.26 8.26 0 012.54-1.48 8.78 8.78 0 018.16 1.03 9.6 9.6 0 013.2 4.33c.77 1.7 1.1 3.65 1.1 5.59 0 1.82-.44 3.65-1.22 5.24a10.23 10.23 0 01-3.42 4.11 8.69 8.69 0 01-5.07 1.6 7.2 7.2 0 01-3.09-.69 5.67 5.67 0 01-2.31-1.94c-.44 1.6-1.43 2.4-2.98 2.4-.88 0-1.54-.34-2.1-.91a3.7 3.7 0 01-.66-2.28zm5.85-7.99c0 1.6.44 2.97 1.21 4.22.77 1.26 1.88 1.83 3.42 1.83 1 0 1.77-.35 2.54-.92a5.95 5.95 0 001.54-2.16c.33-.92.55-1.83.55-2.74 0-1.03-.22-1.94-.55-2.85a5.51 5.51 0 00-1.54-2.28 3.85 3.85 0 00-2.54-.92c-1 0-1.87.23-2.54.8a5.13 5.13 0 00-1.54 2.17 8.71 8.71 0 00-.55 2.85zM111 33.21V8.35c0-.91.21-1.71.76-2.28a2.78 2.78 0 012.1-.91c.55 0 1.1.1 1.54.45.44.23.77.69 1 1.14.22.46.33 1.03.33 1.71v24.87c0 .68-.11 1.14-.33 1.71-.23.46-.56.91-1.1 1.14-.45.23-1 .46-1.55.46-.88 0-1.55-.35-2.1-.92-.44-.8-.66-1.6-.66-2.5zM139.77 18.27v14.37c0 1.14-.1 2.06-.44 2.74-.33.69-1.1 1.03-2.32 1.03-.77 0-1.43-.23-1.87-.57a4.09 4.09 0 01-1-1.83 7.11 7.11 0 01-5.61 2.74 8.74 8.74 0 01-4.97-1.48 10.2 10.2 0 01-3.53-4 12.46 12.46 0 01-1.21-5.81c0-2.06.44-4 1.32-5.7a10.49 10.49 0 013.53-4.11 8.16 8.16 0 014.86-1.49 6.86 6.86 0 015.62 2.62c.1-.68.44-1.25.88-1.7a2.93 2.93 0 011.88-.69c1.2 0 1.98.35 2.31 1.03.33.8.55 1.71.55 2.85zm-15.1 7.19c0 1.02.22 1.94.55 2.85.33.91.88 1.6 1.54 2.17.66.57 1.54.8 2.54.8 1.43 0 2.53-.58 3.3-1.83a7.19 7.19 0 001.22-4.1c0-1.03-.22-1.95-.55-2.86a5.5 5.5 0 00-1.55-2.28 3.85 3.85 0 00-4.96 0 5.5 5.5 0 00-1.54 2.28 10 10 0 00-.55 2.97z" fill="#224A9A"/><path d="M6.72 39.82l-5.6-25.59c14.6-3.18 22.49-1.51 36.65.4l-2.12 24.51-28.93.68z" fill="#fff"/><g filter="url(#filter0_d)"><path d="M6.18 34.55c4.58 0 6.5-5.45 6.5-5.45s2.86-7.82 9.87-7.34c5.74.46 6.6-1.54 6.49-6.8" stroke="#F6822B" stroke-width="3.83" stroke-linecap="square" stroke-linejoin="round"/></g><g filter="url(#filter1_d)"><path d="M14.8 40.37c2.93-1.52 3.31-5.26 4.1-8.18 1.46-5.45 7.03-3.78 10.25-4.55 5.62-1.33 7.33-7.27 7.33-13.02" stroke="#F6822B" stroke-width="2.55"/></g><path d="M33.8 13.14c-1.99-.34-5.52-1.14-10.26-1.6.22-1.6.77-3.88 2.1-5.7.22.11.44.11.66.11 1.1 0 1.98-.9 1.98-2.16 0-1.14-.88-2.06-2.1-2.06-1.1 0-1.98.92-1.98 2.17 0 .23 0 .46.11.68-1.76 2.17-2.42 4.91-2.64 6.85-1-.12-2.1-.12-3.2-.23-.22-1.71-1.1-5.13-3.42-7.64.1-.23.22-.57.22-.91A1.98 1.98 0 0013.28.48c-1.1 0-1.98.91-1.98 2.17 0 1.14.88 2.05 2.1 2.05.1 0 .33 0 .44-.12 1.98 1.94 2.64 4.8 2.97 6.4-3.3-.12-7.05 0-11.13.45-6.4.8-5.52 6.16-5.52 6.16s1 8.44 3.75 19.62c1.1 4.56 7.06 4.22 7.06 4.22l2.65-.12-1.22 1.49s-.88 1.25.66 1.36c1.55 0 2.87.35 3.31-.34.22-.34 1.1-1.6 1.88-2.62l5.18-.23a32.8 32.8 0 001.98 2.74c.45.68 1.77.34 3.31.34 1.55 0 .66-1.37.66-1.37l-1.54-1.82 4.2-.12c3.63 0 4.51-1.7 5.06-3.99 1.99-7.87 2.65-11.52 2.87-17 .33-5.36-2.2-5.93-6.17-6.61zm2.75 7.76c-.22 4.44-.77 7.41-2.42 13.91-.44 1.94-1.22 3.2-4.2 3.31l-17.42.68s-4.85.23-5.84-3.42A131.68 131.68 0 013.58 19.3s-.77-4.45 4.41-5.02c11.69-1.14 20.07.68 23.27 1.25 3.3.69 5.51 1.15 5.3 5.37z" fill="#224A9A"/></g><defs><filter id="filter0_d" x="3.37" y="13" width="28.49" height="25.25" filterUnits="userSpaceOnUse" color-interpolation-filters="sRGB"><feFlood flood-opacity="0" result="BackgroundImageFix"/><feColorMatrix in="SourceAlpha" type="matrix" values="0 0 0 0 0 0 0 0 0 0 0 0 0 0 0 0 0 0 127 0"/><feOffset dy=".9"/><feGaussianBlur stdDeviation=".45"/><feColorMatrix type="matrix" values="0 0 0 0 0 0 0 0 0 0 0 0 0 0 0 0 0 0 0.25 0"/><feBlend mode="normal" in2="BackgroundImageFix" result="effect1_dropShadow"/><feBlend mode="normal" in="SourceGraphic" in2="effect1_dropShadow" result="shape"/></filter><filter id="filter1_d" x="13.31" y="14.62" width="25.34" height="28.68" filterUnits="userSpaceOnUse" color-interpolation-filters="sRGB"><feFlood flood-opacity="0" result="BackgroundImageFix"/><feColorMatrix in="SourceAlpha" type="matrix" values="0 0 0 0 0 0 0 0 0 0 0 0 0 0 0 0 0 0 127 0"/><feOffset dy=".9"/><feGaussianBlur stdDeviation=".45"/><feColorMatrix type="matrix" values="0 0 0 0 0 0 0 0 0 0 0 0 0 0 0 0 0 0 0.25 0"/><feBlend mode="normal" in2="BackgroundImageFix" result="effect1_dropShadow"/><feBlend mode="normal" in="SourceGraphic" in2="effect1_dropShadow" result="shape"/></filter><clipPath id="clip0"><path fill="#fff" transform="translate(0 .21)" d="M0 0h140v44.83H0z"/></clipPath></defs></svg>